<svg id="图层_1" data-name="图层 1" xmlns="http://www.w3.org/2000/svg" viewBox="0 0 310.7 331.64"><defs><style>.cls-1,.cls-2,.cls-3,.cls-6{fill:none;}.cls-1{stroke:gray;stroke-width:0.2px;stroke-dasharray:2.99 2.99;}.cls-1,.cls-2,.cls-6{stroke-miterlimit:10;}.cls-2,.cls-3,.cls-6{stroke:#000;}.cls-2{stroke-width:0.8px;}.cls-3{stroke-linecap:round;stroke-linejoin:round;stroke-width:0.64px;}.cls-4{font-size:10.5px;font-family:CMMI10;}.cls-5,.cls-7{font-size:5.5px;}.cls-5{font-family:CMR5;}.cls-6{stroke-width:0.4px;}.cls-7{font-family:CMMI5;}.cls-8{font-size:12px;fill:#231815;font-family:FangSong;}</style></defs><path class="cls-1" d="M306.73,304V20.51M292.56,304V20.51M278.38,304V20.51M264.21,304V20.51M250,304V20.51M235.86,304V20.51M221.69,304V20.51M207.52,304V20.51M193.34,304V20.51M179.17,304V20.51M165,304V20.51M150.82,304V20.51M136.65,304V20.51M122.48,304V20.51M108.3,304V20.51M94.13,304V20.51M80,304V20.51M65.78,304V20.51M51.61,304V20.51M37.44,304V20.51M23.26,304V20.51m0,0H306.73M23.26,34.69H306.73M23.26,48.86H306.73M23.26,63H306.73M23.26,77.21H306.73M23.26,91.38H306.73M23.26,105.55H306.73M23.26,119.73H306.73M23.26,133.9H306.73M23.26,148.07H306.73M23.26,162.25H306.73M23.26,176.42H306.73M23.26,190.59H306.73M23.26,204.77H306.73M23.26,218.94H306.73M23.26,233.11H306.73M23.26,247.29H306.73M23.26,261.46H306.73M23.26,275.63H306.73M23.26,289.81H306.73M23.26,304H306.73" transform="translate(-13.84 -5.64)"/><line class="cls-2" x1="9.42" y1="298.34" x2="299.27" y2="298.34"/><path class="cls-3" d="M311.56,301.91c.13.77,1.55,1.94,1.94,2.07-.39.13-1.81,1.29-1.94,2.07" transform="translate(-13.84 -5.64)"/><text class="cls-4" transform="translate(296.97 306.75)">x</text><line class="cls-2" x1="9.42" y1="298.34" x2="9.42" y2="8.49"/><path class="cls-3" d="M21.19,15.69c.78-.13,1.94-1.56,2.07-1.95.13.39,1.3,1.82,2.08,1.95" transform="translate(-13.84 -5.64)"/><text class="cls-4" transform="translate(0 9.02)">y</text><text class="cls-5" transform="translate(4.72 302.94)">0</text><line class="cls-6" x1="37.77" y1="300.6" x2="37.77" y2="296.07"/><text class="cls-5" transform="translate(35.9 305.78)">1</text><line class="cls-6" x1="7.16" y1="269.99" x2="11.69" y2="269.99"/><text class="cls-5" transform="translate(1.88 271.76)">1</text><line class="cls-6" x1="66.12" y1="300.6" x2="66.12" y2="296.07"/><text class="cls-5" transform="translate(64.24 305.78)">2</text><line class="cls-6" x1="7.16" y1="241.64" x2="11.69" y2="241.64"/><text class="cls-5" transform="translate(1.88 243.41)">2</text><line class="cls-6" x1="94.46" y1="300.6" x2="94.46" y2="296.07"/><text class="cls-5" transform="translate(92.59 305.78)">3</text><line class="cls-6" x1="7.16" y1="213.29" x2="11.69" y2="213.29"/><text class="cls-5" transform="translate(1.88 215.07)">3</text><line class="cls-6" x1="122.81" y1="300.6" x2="122.81" y2="296.07"/><text class="cls-5" transform="translate(120.94 305.78)">4</text><line class="cls-6" x1="7.16" y1="184.95" x2="11.69" y2="184.95"/><text class="cls-5" transform="translate(1.88 186.72)">4</text><line class="cls-6" x1="151.16" y1="300.6" x2="151.16" y2="296.07"/><text class="cls-5" transform="translate(149.28 305.78)">5</text><line class="cls-6" x1="7.16" y1="156.6" x2="11.69" y2="156.6"/><text class="cls-5" transform="translate(1.88 158.38)">5</text><line class="cls-6" x1="179.5" y1="300.6" x2="179.5" y2="296.07"/><text class="cls-5" transform="translate(177.63 305.78)">6</text><line class="cls-6" x1="7.16" y1="128.25" x2="11.69" y2="128.25"/><text class="cls-5" transform="translate(1.88 130.03)">6</text><line class="cls-6" x1="207.85" y1="300.6" x2="207.85" y2="296.07"/><text class="cls-5" transform="translate(205.98 305.78)">7</text><line class="cls-6" x1="7.16" y1="99.91" x2="11.69" y2="99.91"/><text class="cls-5" transform="translate(1.88 101.68)">7</text><line class="cls-6" x1="236.2" y1="300.6" x2="236.2" y2="296.07"/><text class="cls-5" transform="translate(234.32 305.78)">8</text><line class="cls-6" x1="7.16" y1="71.56" x2="11.69" y2="71.56"/><text class="cls-5" transform="translate(1.88 73.34)">8</text><line class="cls-6" x1="264.54" y1="300.6" x2="264.54" y2="296.07"/><text class="cls-5" transform="translate(262.67 305.78)">9</text><line class="cls-6" x1="7.16" y1="43.21" x2="11.69" y2="43.21"/><text class="cls-5" transform="translate(1.88 44.99)">9</text><line class="cls-6" x1="292.89" y1="300.6" x2="292.89" y2="296.07"/><text class="cls-5" transform="translate(289.14 305.78)">10</text><line class="cls-6" x1="7.16" y1="14.87" x2="11.69" y2="14.87"/><text class="cls-5" transform="translate(0.01 16.64)">10</text><circle cx="179.5" cy="241.64" r="1.13"/><path class="cls-6" d="M193.34,247.29" transform="translate(-13.84 -5.64)"/><text class="cls-5" transform="translate(179.35 248.69)">(6</text><text class="cls-7" transform="translate(186.07 248.69)">,</text><text class="cls-5" transform="translate(189.94 248.69)">2)</text><circle cx="37.77" cy="43.21" r="1.13"/><path class="cls-6" d="M51.61,48.86" transform="translate(-13.84 -5.64)"/><text class="cls-5" transform="translate(37.62 50.26)">(1</text><text class="cls-7" transform="translate(44.34 50.26)">,</text><text class="cls-5" transform="translate(48.21 50.26)">9)</text><circle cx="94.46" cy="156.6" r="1.13"/><path class="cls-6" d="M108.3,162.25" transform="translate(-13.84 -5.64)"/><text class="cls-5" transform="translate(94.31 163.65)">(3</text><text class="cls-7" transform="translate(101.03 163.65)">,</text><text class="cls-5" transform="translate(104.9 163.65)">5)</text><path d="M109.44,105.55a1.14,1.14,0,1,0-1.14,1.14A1.14,1.14,0,0,0,109.44,105.55Z" transform="translate(-13.84 -5.64)"/><path class="cls-6" d="M108.3,105.55" transform="translate(-13.84 -5.64)"/><text class="cls-5" transform="translate(94.31 106.95)">(3</text><text class="cls-7" transform="translate(101.03 106.95)">,</text><text class="cls-5" transform="translate(104.9 106.95)">7)</text><path d="M137.78,162.25a1.13,1.13,0,1,0-1.13,1.13A1.13,1.13,0,0,0,137.78,162.25Z" transform="translate(-13.84 -5.64)"/><path class="cls-6" d="M136.65,162.25" transform="translate(-13.84 -5.64)"/><text class="cls-5" transform="translate(122.65 163.65)">(4</text><text class="cls-7" transform="translate(129.38 163.65)">,</text><text class="cls-5" transform="translate(133.25 163.65)">5)</text><path d="M307.87,190.59a1.14,1.14,0,1,0-1.14,1.14A1.14,1.14,0,0,0,307.87,190.59Z" transform="translate(-13.84 -5.64)"/><path class="cls-6" d="M306.73,190.59" transform="translate(-13.84 -5.64)"/><text class="cls-5" transform="translate(290.86 191.99)">(10</text><text class="cls-7" transform="translate(301.33 191.99)">,</text><text class="cls-5" transform="translate(305.2 191.99)">4)</text><path d="M222.82,77.21a1.13,1.13,0,1,0-1.13,1.13A1.13,1.13,0,0,0,222.82,77.21Z" transform="translate(-13.84 -5.64)"/><path class="cls-6" d="M221.69,77.21" transform="translate(-13.84 -5.64)"/><text class="cls-5" transform="translate(207.69 78.61)">(7</text><text class="cls-7" transform="translate(214.42 78.61)">,</text><text class="cls-5" transform="translate(218.29 78.61)">8)</text><line class="cls-6" x1="179.5" y1="184.95" x2="179.5" y2="298.34"/><line class="cls-6" x1="37.77" y1="14.87" x2="37.77" y2="99.91"/><line class="cls-6" x1="94.46" y1="99.91" x2="94.46" y2="298.34"/><line class="cls-6" x1="9.42" y1="99.91" x2="122.81" y2="99.91"/><line class="cls-6" x1="122.81" y1="298.34" x2="122.81" y2="14.87"/><line class="cls-6" x1="122.81" y1="184.95" x2="292.89" y2="184.95"/><line class="cls-6" x1="207.85" y1="14.87" x2="207.85" y2="184.95"/><text class="cls-8" transform="translate(83.62 329.68)"><tspan xml:space="preserve">图 1:  k-d tree 划分示意图</tspan></text><text x="-13.84" y="-5.64"/></svg>