<svg id="图层_1" data-name="图层 1" xmlns="http://www.w3.org/2000/svg" viewBox="0 0 189.64 653.67"><defs><style>.cls-1{font-size:11.26px;}.cls-1,.cls-3{font-family:FangSong;}.cls-2{fill:none;stroke:#000;stroke-miterlimit:10;stroke-width:0.4px;}.cls-3{font-size:10.5px;}.cls-4{font-size:9.31px;fill:#231815;font-family:AdobeSongStd-Light-GBpc-EUC-H, Adobe Song Std;}</style></defs><text class="cls-1" transform="translate(76.96 9.68) scale(0.93 1)">(4</text><text class="cls-1" transform="translate(86.29 9.68) scale(0.93 1)">,</text><text class="cls-1" transform="translate(90.96 9.68) scale(0.93 1)">5)</text><text class="cls-1" transform="translate(34.44 55.29) scale(0.93 1)">(3</text><text class="cls-1" transform="translate(43.77 55.29) scale(0.93 1)">,</text><text class="cls-1" transform="translate(48.44 55.29) scale(0.93 1)">7)</text><line class="cls-2" x1="79.68" y1="16.46" x2="55.05" y2="42.88"/><text class="cls-1" transform="translate(13.18 100.9) scale(0.93 1)">(1</text><text class="cls-1" transform="translate(22.51 100.9) scale(0.93 1)">,</text><text class="cls-1" transform="translate(27.18 100.9) scale(0.93 1)">9)</text><line class="cls-2" x1="41.63" y1="62.07" x2="29.32" y2="88.49"/><text class="cls-1" transform="translate(55.7 100.9) scale(0.93 1)">(3</text><text class="cls-1" transform="translate(65.03 100.9) scale(0.93 1)">,</text><text class="cls-1" transform="translate(69.7 100.9) scale(0.93 1)">5)</text><line class="cls-2" x1="50.58" y1="62.07" x2="62.89" y2="88.49"/><text class="cls-1" transform="translate(116.85 55.29) scale(0.93 1)">(10</text><text class="cls-1" transform="translate(131.44 55.29) scale(0.93 1)">,</text><text class="cls-1" transform="translate(136.1 55.29) scale(0.93 1)">4)</text><line class="cls-2" x1="97.57" y1="16.46" x2="122.2" y2="42.88"/><text class="cls-1" transform="translate(98.22 100.9) scale(0.93 1)">(7</text><text class="cls-1" transform="translate(107.55 100.9) scale(0.93 1)">,</text><text class="cls-1" transform="translate(112.22 100.9) scale(0.93 1)">8)</text><line class="cls-2" x1="126.67" y1="62.07" x2="114.36" y2="88.49"/><text class="cls-1" transform="translate(140.74 100.9) scale(0.93 1)">(6</text><text class="cls-1" transform="translate(150.07 100.9) scale(0.93 1)">,</text><text class="cls-1" transform="translate(154.74 100.9) scale(0.93 1)">2)</text><line class="cls-2" x1="135.62" y1="62.07" x2="147.93" y2="88.49"/><text class="cls-3" transform="translate(87.75 651.95)">1</text><text class="cls-4" transform="translate(0 118.1) scale(1.07 1)">图 2: 把图 1 所示的平面分割图表示成一棵树</text></svg>